<svg width="120" height="120" viewBox="0 0 120 120" xmlns="http://www.w3.org/2000/svg">
  <title>Home Port</title>
  <g id="group-back">
    <rect id="back-global" x="0" y="0" width="100%" height="100%" fill="DeepSkyBlue" stroke="none"/>
  </g>
  <g id="group-home"
     stroke-linecap="square" stroke-miterlimit="100"
     stroke="none" fill="#f7f7f7"
  >
    <path id="port-1"
          d="M60,60 m-3,-38 l2,-10 a5,5,0,1,1,2,0 l2,10"
          transform="rotate(0,60,60)"
    />
    <path id="port-2"
          d="M60,60 m-3,-38 l2,-10 a5,5,0,1,1,2,0 l2,10"
          transform="rotate(45,60,60)"
    />
    <path id="port-3"
          d="M60,60 m-3,-38 l2,-10 a5,5,0,1,1,2,0 l2,10"
          transform="rotate(90,60,60)"
    />
    <path id="port-4"
          d="M60,60 m-3,-38 l2,-10 a5,5,0,1,1,2,0 l2,10"
          transform="rotate(135,60,60)"
    />
    <path id="port-5"
          d="M60,60 m-3,-38 l2,-10 a5,5,0,1,1,2,0 l2,10"
          transform="rotate(180,60,60)"
    />
    <path id="port-6"
          d="M60,60 m-3,-38 l2,-10 a5,5,0,1,1,2,0 l2,10"
          transform="rotate(225,60,60)"
    />
    <path id="port-7"
          d="M60,60 m-3,-38 l2,-10 a5,5,0,1,1,2,0 l2,10"
          transform="rotate(270,60,60)"
    />
    <path id="port-8"
          d="M60,60 m-3,-38 l2,-10 a5,5,0,1,1,2,0 l2,10"
          transform="rotate(315,60,60)"
    />
    <circle id="port-home" cx="60" cy="60" r="36"/>
  </g>
</svg>