<svg width="120" height="120" viewBox="0 0 120 120" xmlns="http://www.w3.org/2000/svg">
  <title>Home Ship</title>
  <g id="group-back">
    <rect id="back-global" x="0" y="0" width="100%" height="100%" fill="#927FC7" stroke="none"/>
  </g>
  <g id="group-ship"
     stroke-linecap="square" stroke-miterlimit="100"
     stroke="none" fill="#f7f7f7"
     transform="translate(0,9)"
  >
    <path id="port-1"
          d="M60,60 m-4,-27 l3,-30 a5,5,0,1,1,2,0 l3,30"
          transform="rotate(0,60,60)"
    />
    <path id="port-2"
          d="M60,60 m-4,-27 l3,-30 a5,5,0,1,1,2,0 l3,30"
          transform="rotate(135,60,60)"
    />
    <path id="port-3"
          d="M60,60 m-4,-27 l3,-30 a5,5,0,1,1,2,0 l3,30"
          transform="rotate(225,60,60)"
    />
    <circle id="port-ship" cx="60" cy="60" r="23"/>
  </g>
</svg>